# xmcd
#
# Track frame offsets: 
#        150
#        18463
#        33934
#        52029
#        69261
#        81464
#        97900
#        108337
#        126198
#        139296
#        150744
#        160760
#        176496
#        190765
#        204678
#
# Disc length: 2905 seconds
#
# Revision: 0
# Processed by: cddbd v1.5.1PL0 Copyright (c) Steve Scherf et al.
# Submitted via: ExactAudioCopy v0.90b4
#
DISCID=c80b570f
DTITLE=Blue Land - fire
DYEAR=2001
DGENRE=Bluegrass
TTITLE0=Midnight Train
TTITLE1=Cas detskych hier
TTITLE2=Fire
TTITLE3=Jeanny Dear
TTITLE4=Maybe This Time
TTITLE5=Svitanie
TTITLE6=Turn The Car Slowly
TTITLE7=Rainbow
TTITLE8=King Of Babylon
TTITLE9=Aj ked nespis
TTITLE10=Dearest Friend I Ever Had
TTITLE11=Lonely Al' Night
TTITLE12=Návrat
TTITLE13=Ernest T. Grass
TTITLE14=Take Your Shoes Off Moses
EXTD=
EXTT0=
EXTT1=
EXTT2=
EXTT3=
EXTT4=
EXTT5=
EXTT6=
EXTT7=
EXTT8=
EXTT9=
EXTT10=
EXTT11=
EXTT12=
EXTT13=
EXTT14=
PLAYORDER=
